<svg id="svg" version="1.1" width="400" height="202.99884659746252" viewBox="0 0 400 202.99884659746252" xmlns="http://www.w3.org/2000/svg" xmlns:xlink="http://www.w3.org/1999/xlink" ><g id="svgg"><path id="path0" d="" stroke="none" fill="#000000" fill-rule="evenodd"></path><path id="path1" d="M125.482 164.102 C 125.426 173.560,125.450 181.230,125.534 181.146 C 125.619 181.062,125.664 173.323,125.636 163.948 L 125.584 146.904 125.482 164.102 M180.798 160.000 C 180.798 162.624,180.827 163.698,180.862 162.386 C 180.898 161.074,180.898 158.926,180.862 157.614 C 180.827 156.302,180.798 157.376,180.798 160.000 " stroke="none" fill="#ffffff" fill-rule="evenodd"></path><path id="path2" d="" stroke="none" fill="#003300" fill-rule="evenodd"></path><path id="path3" d="M278.376 60.425 C 278.208 60.487,277.888 60.618,277.665 60.717 C 277.442 60.816,276.345 61.232,275.228 61.641 C 274.112 62.051,273.152 62.448,273.096 62.524 C 273.041 62.599,272.538 62.854,271.980 63.091 C 270.796 63.592,267.456 65.295,267.128 65.564 C 267.005 65.665,266.365 66.043,265.708 66.403 C 260.453 69.279,256.004 74.203,257.312 75.693 C 257.480 75.884,257.678 76.242,257.753 76.487 C 257.928 77.062,259.630 78.488,260.640 78.906 C 261.070 79.084,261.878 79.436,262.437 79.690 C 262.995 79.943,264.365 80.353,265.482 80.600 C 266.599 80.847,267.695 81.126,267.919 81.221 C 268.652 81.530,277.368 82.624,281.523 82.928 C 281.970 82.961,282.655 83.046,283.046 83.117 C 283.437 83.189,285.447 83.388,287.513 83.561 C 291.956 83.932,295.778 84.402,296.345 84.647 C 296.569 84.743,297.437 84.986,298.274 85.186 C 302.512 86.198,303.833 88.354,301.436 90.343 C 300.896 90.791,301.072 91.007,301.878 90.883 C 305.712 90.295,307.905 89.904,308.189 89.759 C 308.375 89.664,309.670 89.290,311.066 88.928 C 312.462 88.566,313.695 88.205,313.807 88.126 C 313.919 88.047,315.015 87.637,316.244 87.215 C 317.472 86.792,318.523 86.381,318.579 86.302 C 318.635 86.222,319.345 85.905,320.158 85.597 C 320.970 85.289,321.747 84.931,321.884 84.803 C 322.021 84.674,322.864 84.216,323.757 83.785 C 324.650 83.355,325.774 82.738,326.254 82.415 C 326.734 82.092,327.152 81.827,327.182 81.827 C 327.686 81.827,330.353 78.542,330.354 77.919 C 330.355 77.723,330.447 77.563,330.558 77.563 C 330.670 77.563,330.761 77.139,330.761 76.619 C 330.761 74.231,328.624 71.921,324.670 70.038 C 323.944 69.693,323.090 69.270,322.773 69.098 C 321.820 68.584,318.454 67.439,315.431 66.600 C 313.868 66.165,312.086 65.670,311.472 65.498 C 310.858 65.327,309.350 64.997,308.122 64.766 C 306.893 64.535,305.706 64.261,305.482 64.157 C 305.259 64.054,303.112 63.639,300.711 63.237 C 298.310 62.834,296.162 62.474,295.939 62.436 C 293.093 61.954,290.949 61.660,287.145 61.231 C 284.653 60.949,282.543 60.675,282.455 60.621 C 282.206 60.466,278.716 60.299,278.376 60.425 " stroke="none" fill="#005f33" fill-rule="evenodd"></path><path id="path4" d="M250.051 114.131 C 248.599 114.452,247.263 114.801,247.081 114.907 C 246.899 115.013,246.397 115.160,245.964 115.234 C 244.348 115.510,241.487 116.159,240.457 116.482 L 239.391 116.817 239.391 122.266 L 239.391 127.716 236.240 127.716 L 233.090 127.716 233.144 132.944 L 233.198 138.173 236.284 138.229 L 239.369 138.285 239.442 153.355 C 239.517 168.628,239.661 171.553,240.387 172.475 C 240.480 172.593,240.670 173.056,240.810 173.503 C 241.086 174.388,241.980 176.279,242.200 176.445 C 242.276 176.502,242.610 176.914,242.943 177.360 C 243.946 178.705,245.924 180.246,247.107 180.605 C 247.386 180.690,247.980 180.923,248.426 181.123 C 250.867 182.215,259.934 182.169,262.589 181.050 L 263.147 180.815 263.147 175.198 L 263.147 169.581 260.761 169.688 C 254.093 169.988,253.807 169.201,253.807 150.544 L 253.807 138.274 258.985 138.274 L 264.162 138.274 264.162 132.995 L 264.162 127.716 258.985 127.716 L 253.807 127.716 253.807 120.609 L 253.807 113.503 253.249 113.525 C 252.942 113.538,251.503 113.811,250.051 114.131 M64.061 127.130 C 62.653 127.335,59.919 128.096,59.535 128.391 C 59.391 128.501,58.836 128.794,58.303 129.041 C 57.770 129.288,57.008 129.776,56.610 130.126 C 56.211 130.475,55.835 130.761,55.774 130.761 C 54.832 130.761,51.743 135.405,50.854 138.159 C 49.828 141.336,49.650 146.978,50.539 148.111 C 50.632 148.228,50.858 148.782,51.042 149.340 C 51.372 150.339,51.744 151.027,52.838 152.655 C 53.515 153.663,56.060 156.197,57.128 156.927 C 58.731 158.022,61.244 159.613,62.030 160.030 C 62.946 160.516,64.589 161.821,65.440 162.739 C 67.851 165.340,66.898 169.900,63.823 170.477 C 63.449 170.547,63.093 170.685,63.031 170.784 C 62.883 171.025,60.190 171.015,59.405 170.770 C 59.062 170.663,57.959 170.388,56.954 170.158 C 55.908 169.919,54.412 169.379,53.454 168.895 C 51.505 167.909,51.639 167.851,51.170 169.883 C 50.969 170.757,50.573 172.340,50.291 173.401 C 50.008 174.462,49.619 176.090,49.425 177.020 L 49.072 178.710 49.561 179.155 C 50.141 179.682,51.220 180.158,52.893 180.624 C 53.563 180.811,54.294 181.045,54.518 181.143 C 55.952 181.776,62.144 182.131,65.018 181.746 C 72.233 180.781,77.741 176.554,79.425 170.691 C 79.734 169.616,79.708 169.696,79.867 169.340 C 81.406 165.895,79.439 157.471,76.353 154.292 C 76.069 154.000,75.525 153.420,75.144 153.004 C 74.257 152.037,72.069 150.305,70.761 149.536 C 70.203 149.208,69.597 148.847,69.414 148.734 C 69.232 148.620,68.638 148.261,68.095 147.934 C 64.761 145.932,63.467 144.366,63.474 142.345 C 63.489 137.932,68.374 136.572,74.272 139.337 C 75.665 139.990,76.142 139.964,76.142 139.235 C 76.142 138.974,76.223 138.675,76.323 138.569 C 76.422 138.462,76.793 137.005,77.148 135.330 C 77.502 133.655,77.976 131.614,78.201 130.794 C 78.426 129.974,78.580 129.279,78.544 129.248 C 78.507 129.217,77.954 128.999,77.314 128.763 C 76.675 128.527,75.989 128.246,75.791 128.138 C 74.067 127.202,67.469 126.635,64.061 127.130 M109.114 127.112 C 107.986 127.314,105.139 128.286,104.975 128.524 C 104.919 128.605,104.543 128.826,104.139 129.016 C 102.904 129.596,100.586 131.747,99.469 133.349 C 99.171 133.777,99.137 133.646,98.899 131.115 C 98.760 129.636,98.602 128.266,98.548 128.071 C 98.457 127.742,97.972 127.716,92.044 127.716 L 85.637 127.716 85.760 129.391 C 86.014 132.861,86.129 142.033,86.161 161.320 L 86.193 181.218 93.401 181.218 L 100.609 181.218 100.713 162.944 C 100.828 142.619,100.738 143.881,102.241 141.566 C 104.280 138.424,108.187 138.229,109.918 141.184 C 110.944 142.933,110.930 142.674,111.052 162.538 L 111.168 181.218 118.229 181.272 C 123.771 181.314,125.310 181.270,125.381 181.069 C 125.432 180.928,125.504 172.772,125.542 162.944 C 125.600 147.788,125.657 144.907,125.917 143.959 C 126.780 140.818,128.606 139.093,131.074 139.088 C 133.844 139.083,135.504 141.422,135.752 145.679 C 135.811 146.688,135.895 147.878,135.939 148.325 C 135.984 148.772,136.025 156.378,136.030 165.228 L 136.041 181.320 143.156 181.320 L 150.271 181.320 150.196 161.269 C 150.119 140.525,150.069 139.249,149.263 137.566 C 149.155 137.341,148.881 136.518,148.653 135.736 C 147.311 131.131,143.554 127.731,139.102 127.092 C 132.984 126.214,127.189 128.589,124.115 133.233 L 123.587 134.031 123.149 133.120 C 122.371 131.507,120.941 129.820,119.658 129.003 C 119.344 128.803,119.041 128.586,118.985 128.522 C 118.039 127.434,112.068 126.581,109.114 127.112 M171.168 127.223 C 167.647 127.675,161.610 129.416,161.015 130.151 C 160.959 130.220,160.617 130.397,160.254 130.544 C 159.891 130.691,159.595 130.914,159.596 131.040 C 159.599 131.402,160.598 135.233,160.787 135.604 C 160.880 135.788,161.164 136.853,161.417 137.970 C 162.152 141.207,161.954 141.019,163.696 140.135 C 169.377 137.251,175.704 136.982,178.275 139.516 C 179.830 141.049,180.243 141.956,180.438 144.261 L 180.559 145.695 177.722 145.942 C 174.921 146.186,171.867 146.702,171.472 146.999 C 171.360 147.083,170.617 147.347,169.820 147.585 C 160.576 150.348,155.236 158.512,156.331 168.209 C 156.569 170.318,157.046 172.287,157.436 172.772 C 157.562 172.929,157.643 173.089,157.616 173.127 C 156.978 174.038,161.343 179.189,163.918 180.563 C 168.272 182.887,175.798 182.436,178.682 179.678 C 178.848 179.519,179.272 179.152,179.622 178.863 C 179.973 178.574,180.681 177.864,181.196 177.284 C 181.855 176.542,182.136 176.337,182.145 176.592 C 182.159 176.971,182.641 180.111,182.793 180.812 C 182.879 181.208,183.046 181.218,189.359 181.218 L 195.838 181.218 195.799 180.406 C 195.778 179.959,195.656 178.817,195.528 177.868 C 195.382 176.784,195.263 171.154,195.208 162.741 C 195.103 146.660,195.072 145.529,194.639 142.538 C 192.892 130.455,185.183 125.424,171.168 127.223 M225.354 127.119 C 223.031 127.669,220.880 129.203,219.111 131.574 C 218.820 131.964,218.518 132.332,218.440 132.390 C 218.223 132.553,217.056 134.971,217.056 135.258 C 217.056 135.413,216.989 135.437,216.884 135.320 C 216.790 135.214,216.601 133.619,216.465 131.777 C 216.328 129.934,216.171 128.266,216.115 128.071 C 216.021 127.742,215.539 127.716,209.715 127.716 L 203.417 127.716 203.535 129.086 C 203.599 129.840,203.708 141.902,203.776 155.891 L 203.899 181.325 211.137 181.272 L 218.376 181.218 218.489 165.888 C 218.609 149.695,218.602 149.808,219.620 147.264 C 221.196 143.324,223.905 141.480,228.223 141.407 L 230.761 141.365 230.815 134.260 L 230.868 127.155 230.409 127.032 C 229.743 126.854,226.219 126.914,225.354 127.119 M284.975 127.191 C 278.531 128.279,271.675 134.378,269.833 140.660 C 269.694 141.135,269.503 141.523,269.409 141.523 C 269.315 141.523,269.257 141.591,269.281 141.675 C 269.304 141.759,269.168 142.284,268.978 142.843 C 268.533 144.156,267.825 147.532,267.820 148.359 C 267.819 148.712,267.738 149.032,267.642 149.069 C 267.062 149.293,267.039 161.151,267.616 161.929 C 267.699 162.041,267.833 162.679,267.914 163.348 C 268.576 168.814,271.737 174.603,275.719 177.639 C 276.616 178.323,277.416 178.883,277.496 178.883 C 277.577 178.883,277.968 179.108,278.365 179.382 C 281.428 181.500,290.938 182.621,296.650 181.537 C 297.264 181.421,297.949 181.292,298.173 181.252 C 298.396 181.211,298.716 181.127,298.883 181.066 C 299.051 181.004,300.250 180.712,301.548 180.417 C 304.862 179.662,304.671 179.956,304.069 176.527 C 303.792 174.952,303.485 173.444,303.388 173.177 C 303.290 172.909,303.091 171.959,302.946 171.066 C 302.610 169.002,302.540 168.911,301.541 169.255 C 296.676 170.931,288.499 170.902,285.900 169.198 C 283.740 167.783,282.156 165.596,281.738 163.452 C 281.661 163.061,281.520 162.513,281.424 162.234 C 281.328 161.954,281.208 161.292,281.157 160.761 L 281.065 159.797 293.731 159.797 C 300.697 159.797,306.398 159.774,306.401 159.746 C 306.404 159.718,306.503 158.827,306.619 157.766 C 306.904 155.185,306.987 151.069,306.788 149.442 C 306.699 148.716,306.524 147.117,306.398 145.888 C 305.026 132.478,296.700 125.211,284.975 127.191 M308.426 127.891 C 308.426 128.210,309.009 129.735,309.625 131.026 C 310.217 132.267,311.188 134.475,312.278 137.056 C 312.584 137.782,313.061 138.832,313.338 139.391 C 313.615 139.949,314.054 141.000,314.314 141.726 C 314.573 142.452,314.896 143.183,315.031 143.350 C 315.166 143.518,315.572 144.431,315.933 145.381 C 316.293 146.330,316.669 147.205,316.767 147.326 C 316.866 147.446,317.170 148.131,317.443 148.848 C 317.716 149.566,318.212 150.701,318.545 151.371 C 320.062 154.419,320.072 154.760,318.737 157.462 C 318.406 158.132,317.862 159.365,317.527 160.203 C 317.193 161.041,316.845 161.817,316.755 161.929 C 316.664 162.041,316.346 162.726,316.047 163.452 C 315.747 164.178,315.330 165.111,315.118 165.527 C 314.907 165.942,314.444 167.016,314.090 167.912 C 313.735 168.809,313.367 169.543,313.271 169.543 C 313.175 169.543,313.096 169.669,313.096 169.823 C 313.096 170.097,312.447 171.680,311.670 173.299 C 311.044 174.604,309.124 178.921,308.825 179.695 C 308.674 180.086,308.464 180.465,308.358 180.538 C 308.251 180.610,308.221 180.817,308.290 180.997 C 308.403 181.292,309.143 181.320,315.570 181.272 L 322.724 181.218 322.968 180.508 C 323.101 180.117,323.482 179.020,323.814 178.071 C 324.146 177.122,324.623 175.614,324.874 174.721 C 325.125 173.827,325.396 173.005,325.476 172.893 C 325.555 172.782,325.872 171.777,326.180 170.660 C 326.488 169.543,327.051 167.692,327.431 166.545 C 327.811 165.399,328.122 164.280,328.122 164.058 C 328.122 163.836,328.213 163.655,328.325 163.655 C 328.437 163.655,328.528 163.693,328.528 163.740 C 328.528 163.999,329.999 168.883,330.239 169.417 C 330.395 169.766,330.770 170.827,331.072 171.777 C 331.375 172.726,331.748 173.777,331.900 174.112 C 332.053 174.447,332.508 175.680,332.911 176.853 C 333.314 178.025,333.826 179.510,334.048 180.152 L 334.452 181.320 342.353 181.320 C 348.126 181.320,350.254 181.258,350.254 181.089 C 350.254 180.961,349.885 180.088,349.434 179.148 C 348.983 178.208,348.444 177.010,348.236 176.486 C 348.028 175.962,347.620 175.063,347.330 174.488 C 347.040 173.914,346.802 173.389,346.802 173.321 C 346.802 173.254,346.518 172.582,346.170 171.828 C 345.822 171.074,345.200 169.726,344.788 168.832 C 344.376 167.939,343.553 166.112,342.960 164.772 C 342.366 163.431,341.480 161.492,340.991 160.462 C 340.502 159.432,340.102 158.538,340.102 158.475 C 340.102 158.412,339.644 157.397,339.084 156.220 L 338.067 154.080 338.405 153.334 C 338.719 152.640,339.704 150.511,340.816 148.122 C 341.076 147.563,341.712 146.205,342.230 145.103 C 342.747 144.001,343.355 142.607,343.580 142.006 C 343.805 141.405,344.063 140.914,344.155 140.914 C 344.247 140.914,344.384 140.665,344.460 140.361 C 344.536 140.057,344.994 138.984,345.477 137.975 C 345.960 136.967,346.565 135.640,346.822 135.025 C 347.078 134.411,347.346 133.863,347.416 133.807 C 347.487 133.751,347.836 132.999,348.192 132.136 C 348.549 131.273,349.113 130.042,349.446 129.401 C 349.779 128.759,350.051 128.118,350.051 127.975 C 350.051 127.769,348.537 127.716,342.737 127.716 L 335.423 127.716 335.235 128.173 C 334.926 128.925,334.010 132.024,334.010 132.317 C 334.010 132.467,333.913 132.589,333.795 132.589 C 333.677 132.589,333.639 132.684,333.711 132.801 C 333.783 132.917,333.753 133.123,333.643 133.258 C 333.534 133.392,333.187 134.371,332.873 135.431 C 332.559 136.492,332.229 137.391,332.139 137.429 C 332.050 137.466,332.027 137.576,332.087 137.674 C 332.147 137.772,332.103 138.015,331.988 138.215 C 331.873 138.415,331.498 139.721,331.154 141.117 C 330.810 142.513,330.369 144.127,330.174 144.704 L 329.821 145.752 329.392 144.094 C 328.629 141.143,326.064 133.087,325.632 132.284 C 325.511 132.061,325.128 130.964,324.779 129.848 L 324.145 127.817 316.286 127.764 C 311.816 127.734,308.426 127.789,308.426 127.891 M289.443 137.957 C 291.639 138.875,293.136 142.382,293.500 147.462 L 293.642 149.442 287.430 149.442 L 281.218 149.442 281.218 148.666 C 281.218 147.836,281.827 144.774,282.355 142.950 C 283.536 138.871,286.549 136.748,289.443 137.957 M180.905 159.746 C 180.890 167.295,180.458 168.770,177.756 170.508 C 171.633 174.446,166.938 163.624,172.446 158.267 C 174.070 156.688,177.320 155.460,180.152 155.358 L 180.914 155.330 180.905 159.746 " stroke="none" fill="#ffffff" fill-rule="evenodd"></path><path id="path5" d="" stroke="none" fill="#339900" fill-rule="evenodd"></path><path id="path6" d="M349.713 21.777 C 348.625 22.942,343.962 26.396,343.476 26.396 C 343.366 26.396,343.086 26.562,342.856 26.765 C 342.625 26.968,341.751 27.440,340.914 27.814 C 340.076 28.189,339.345 28.556,339.289 28.631 C 339.234 28.705,338.368 29.061,337.366 29.421 C 336.364 29.781,335.451 30.152,335.336 30.245 C 335.221 30.338,333.985 30.746,332.589 31.152 C 331.193 31.558,329.905 31.971,329.727 32.069 C 329.550 32.167,328.088 32.538,326.479 32.892 C 324.870 33.247,323.371 33.618,323.147 33.717 C 322.924 33.817,321.690 34.081,320.406 34.306 C 319.122 34.530,317.340 34.856,316.447 35.030 C 315.553 35.205,314.274 35.446,313.604 35.565 C 312.047 35.843,303.840 36.940,295.635 37.966 C 292.117 38.406,288.234 38.903,287.005 39.071 C 285.777 39.238,283.310 39.576,281.523 39.820 C 279.736 40.065,278.228 40.320,278.173 40.388 C 278.117 40.455,276.746 40.772,275.127 41.092 C 273.508 41.412,271.726 41.846,271.168 42.055 C 270.609 42.265,269.330 42.678,268.325 42.973 C 267.320 43.267,266.179 43.679,265.790 43.886 C 265.401 44.094,265.005 44.264,264.911 44.264 C 264.658 44.264,262.048 45.319,261.929 45.469 C 261.873 45.539,261.204 45.859,260.443 46.178 C 259.681 46.497,258.767 46.952,258.412 47.188 C 258.057 47.425,257.501 47.736,257.177 47.880 C 256.853 48.024,256.122 48.443,255.553 48.811 C 254.983 49.179,254.182 49.681,253.771 49.926 C 253.360 50.170,252.994 50.440,252.959 50.524 C 252.923 50.608,252.534 50.896,252.096 51.164 C 250.028 52.427,245.732 56.531,244.205 58.702 C 238.163 67.293,240.274 75.312,249.543 78.985 C 250.157 79.229,250.900 79.555,251.194 79.711 C 252.038 80.159,258.145 81.659,260.062 81.890 C 261.068 82.011,261.153 81.661,260.190 81.365 C 259.862 81.264,259.320 81.061,258.985 80.913 C 258.650 80.764,257.805 80.452,257.108 80.218 C 255.957 79.833,254.857 79.299,253.062 78.254 C 252.298 77.809,251.371 76.458,251.371 75.790 C 251.371 74.048,255.360 69.291,259.594 65.984 C 260.599 65.199,261.531 64.469,261.665 64.362 C 261.798 64.254,262.347 63.924,262.883 63.628 C 263.419 63.331,264.086 62.933,264.365 62.742 C 265.220 62.157,268.857 60.402,270.254 59.900 C 270.980 59.640,271.681 59.344,271.812 59.244 C 271.943 59.144,273.085 58.747,274.350 58.363 C 275.615 57.978,276.832 57.575,277.056 57.466 C 277.734 57.138,282.938 55.847,286.599 55.100 C 288.497 54.713,290.234 54.310,290.457 54.206 C 290.680 54.101,292.667 53.693,294.872 53.298 C 297.076 52.904,299.087 52.496,299.339 52.392 C 299.591 52.287,301.030 51.967,302.538 51.679 C 304.046 51.391,305.645 51.030,306.091 50.877 C 306.538 50.723,308.183 50.304,309.746 49.945 C 311.310 49.587,312.680 49.221,312.792 49.132 C 312.904 49.043,313.589 48.821,314.315 48.638 C 315.972 48.220,318.210 47.506,318.477 47.309 C 318.589 47.227,319.046 47.046,319.492 46.908 C 320.580 46.570,326.166 44.223,326.294 44.049 C 326.350 43.974,327.081 43.580,327.919 43.175 C 328.756 42.769,329.761 42.241,330.152 42.000 C 331.987 40.871,334.731 39.102,334.822 38.989 C 334.878 38.920,335.244 38.642,335.635 38.372 C 339.169 35.926,344.577 30.556,347.082 27.005 C 348.303 25.274,350.226 22.398,350.433 21.993 C 350.965 20.953,350.587 20.840,349.713 21.777 " stroke="none" fill="#00b04c" fill-rule="evenodd"></path><path id="path7" d="M334.172 77.716 C 334.041 79.898,332.837 81.711,330.000 83.996 C 327.994 85.611,320.940 89.314,317.462 90.576 C 316.792 90.819,316.142 91.098,316.018 91.196 C 315.894 91.294,314.989 91.652,314.007 91.992 C 313.025 92.332,311.984 92.731,311.695 92.879 C 311.405 93.026,310.299 93.449,309.239 93.817 C 308.178 94.186,307.264 94.540,307.208 94.604 C 307.152 94.668,306.193 95.032,305.076 95.413 C 303.959 95.793,302.954 96.171,302.843 96.251 C 302.731 96.332,301.726 96.724,300.609 97.123 C 297.630 98.187,294.368 99.448,293.946 99.699 C 293.743 99.820,292.833 100.193,291.924 100.528 C 291.014 100.864,290.175 101.211,290.059 101.300 C 289.943 101.389,289.162 101.743,288.325 102.087 C 286.641 102.778,284.036 104.007,283.249 104.482 C 282.970 104.651,282.079 105.112,281.269 105.507 C 280.459 105.902,279.797 106.309,279.797 106.412 C 279.797 106.515,279.674 106.599,279.525 106.599 C 279.272 106.599,275.465 109.052,274.315 109.955 C 273.124 110.891,270.273 113.895,269.587 114.936 C 268.040 117.286,267.073 121.083,267.579 122.821 C 267.696 123.224,267.902 124.010,268.036 124.569 C 268.752 127.534,269.874 129.126,270.149 127.563 C 270.685 124.514,275.313 120.834,280.812 119.084 C 281.426 118.889,282.157 118.605,282.437 118.454 C 282.716 118.303,283.904 117.903,285.076 117.566 C 286.249 117.229,287.391 116.867,287.614 116.763 C 287.838 116.658,289.187 116.293,290.613 115.950 C 292.039 115.608,293.364 115.243,293.557 115.138 C 293.751 115.034,295.416 114.577,297.259 114.122 C 303.007 112.705,305.471 112.075,305.787 111.941 C 305.954 111.870,306.137 111.796,306.193 111.777 C 306.249 111.757,306.431 111.684,306.599 111.614 C 306.766 111.544,307.817 111.254,308.934 110.970 C 313.319 109.855,323.481 106.048,324.670 105.075 C 324.838 104.938,325.474 104.579,326.085 104.277 C 334.762 99.989,339.250 91.753,337.244 83.802 C 336.626 81.351,335.816 78.695,335.651 78.579 C 335.572 78.523,335.297 77.952,335.040 77.310 C 334.423 75.770,334.284 75.835,334.172 77.716 " stroke="none" fill="#6dbe45" fill-rule="evenodd"></path><path id="path8" d="" stroke="none" fill="#00ff00" fill-rule="evenodd"></path><path id="path9" d="" stroke="none" fill="#ffff00" fill-rule="evenodd"></path></g></svg>