<?xml version="1.0" standalone="no"?>
<!DOCTYPE svg PUBLIC "-//W3C//DTD SVG 20010904//EN"
 "http://www.w3.org/TR/2001/REC-SVG-20010904/DTD/svg10.dtd">
<svg version="1.0" xmlns="http://www.w3.org/2000/svg"
 width="1734.000000pt" height="880.000000pt" viewBox="0 0 1734.000000 880.000000"
 preserveAspectRatio="xMidYMid meet">
<metadata>
Created by potrace 1.15, written by Peter Selinger 2001-2017
</metadata>
<g transform="translate(0.000000,880.000000) scale(0.100000,-0.100000)"
fill="#000000" stroke="none">
<path d="M12000 6152 c-414 -155 -797 -413 -840 -567 -10 -37 -9 -47 9 -82 67
-132 307 -214 781 -267 74 -9 257 -27 405 -41 414 -40 586 -70 684 -120 87
-44 102 -93 50 -164 -17 -24 -29 -44 -27 -46 5 -5 216 31 308 53 275 66 663
231 819 347 127 96 171 207 122 304 -117 228 -810 442 -1862 575 -319 41 -360
41 -449 8z"/>
<path d="M10865 3855 c-49 -13 -179 -44 -287 -70 l-198 -47 0 -239 0 -239
-135 0 -135 0 0 -225 0 -225 135 0 135 0 0 -602 c0 -733 8 -820 86 -986 73
-152 202 -251 376 -286 128 -26 392 -19 521 15 l37 10 0 242 0 242 -123 0
c-117 0 -125 1 -164 27 -50 33 -88 106 -103 198 -6 39 -10 283 -10 603 l0 537
225 0 225 0 0 225 0 225 -225 0 -225 0 0 310 0 310 -22 -1 c-13 0 -63 -11
-113 -24z"/>
<path d="M2764 3286 c-165 -32 -278 -90 -390 -201 -130 -129 -190 -272 -201
-476 -7 -128 12 -226 62 -327 72 -143 177 -243 400 -382 203 -126 265 -199
265 -313 0 -42 -22 -101 -48 -130 -85 -95 -329 -83 -546 25 -32 16 -60 27 -63
24 -7 -6 -112 -426 -113 -447 0 -23 133 -81 250 -110 83 -20 119 -23 285 -23
223 0 289 14 444 91 236 117 363 335 364 628 1 297 -131 501 -454 700 -225
139 -272 189 -272 289 0 188 221 250 470 132 l73 -35 9 37 c14 53 101 418 101
424 0 10 -131 59 -214 79 -106 26 -323 34 -422 15z"/>
<path d="M4710 3284 c-135 -29 -286 -126 -380 -245 l-37 -47 -13 134 -13 134
-274 0 -275 0 6 -57 c3 -32 9 -552 12 -1155 l6 -1098 309 0 309 0 0 758 c0
804 2 839 48 928 87 168 287 191 363 42 45 -89 48 -145 49 -960 l0 -768 310 0
309 0 3 803 3 802 29 62 c51 110 139 171 233 160 75 -8 129 -63 159 -161 26
-89 33 -292 34 -988 l0 -678 305 0 305 0 0 821 c0 905 -2 947 -61 1124 -40
119 -80 187 -153 261 -96 95 -222 143 -379 144 -209 0 -401 -95 -523 -261
l-37 -51 -31 59 c-104 196 -356 293 -616 237z"/>
<path d="M7500 3295 c-8 -2 -55 -9 -105 -15 -122 -17 -281 -63 -387 -112 -48
-22 -88 -44 -88 -47 0 -9 110 -414 114 -418 1 -2 28 11 59 27 127 69 287 105
434 98 179 -8 280 -103 298 -279 l7 -66 -98 -7 c-202 -14 -413 -74 -563 -158
-51 -29 -107 -74 -172 -138 -79 -79 -103 -110 -137 -180 -66 -134 -85 -220
-85 -385 0 -162 19 -250 80 -374 53 -108 170 -225 273 -274 92 -43 156 -57
263 -57 171 0 306 57 428 179 l77 76 12 -90 c6 -49 14 -98 16 -107 5 -17 27
-18 286 -18 l280 0 -6 33 c-22 117 -29 300 -36 927 -8 753 -8 754 -62 915 -59
176 -171 312 -318 384 -130 63 -218 82 -400 86 -85 2 -162 2 -170 0z m340
-1468 l0 -244 -31 -62 c-54 -108 -174 -171 -270 -142 -55 17 -112 71 -140 134
-21 45 -24 67 -24 167 0 106 2 120 28 172 34 69 90 121 173 160 60 28 172 55
237 57 l27 1 0 -243z"/>
<path d="M9748 3281 c-70 -23 -119 -52 -182 -111 -48 -43 -138 -170 -151 -211
-13 -42 -23 -4 -35 146 l-13 155 -275 0 -274 0 6 -57 c3 -32 9 -552 12 -1155
l6 -1098 314 0 314 0 0 643 c0 397 4 666 11 706 24 148 118 285 237 343 63 31
73 33 174 33 l108 0 0 306 c0 271 -2 308 -16 313 -33 13 -180 5 -236 -13z"/>
<path d="M12365 3289 c-420 -83 -690 -428 -765 -977 -16 -119 -13 -417 5 -537
69 -452 292 -726 673 -826 201 -53 596 -30 855 51 61 19 68 24 64 43 -3 12
-22 112 -43 222 -20 110 -38 202 -40 204 -2 2 -49 -8 -106 -23 -490 -124 -779
7 -818 372 l-6 62 548 0 547 0 8 38 c4 20 8 145 7 277 -1 197 -5 260 -22 355
-73 402 -261 647 -557 726 -72 19 -280 27 -350 13z m208 -479 c76 -52 128
-173 147 -345 5 -49 10 -102 10 -117 l0 -28 -271 0 -272 0 7 71 c20 214 92
374 195 430 50 27 136 22 184 -11z"/>
<path d="M13370 3255 c0 -3 111 -258 246 -567 136 -310 249 -571 251 -580 4
-13 -425 -994 -494 -1130 l-14 -28 315 0 315 0 74 227 c41 126 96 301 123 390
l48 162 42 -137 c24 -75 83 -249 132 -387 l90 -250 342 -3 c273 -2 341 0 337
10 -3 7 -121 270 -262 583 -142 314 -258 575 -258 580 0 6 115 261 256 567
142 306 257 559 257 562 0 3 -141 6 -314 6 l-315 0 -75 -227 c-41 -126 -93
-298 -116 -383 -23 -85 -45 -159 -47 -164 -3 -4 -25 59 -48 140 -24 82 -73
237 -110 344 -37 107 -74 216 -83 243 l-16 47 -338 0 c-186 0 -338 -2 -338 -5z"/>
</g>
</svg>
