<svg id="svg" version="1.1" width="400" height="202.99884659746252" viewBox="0 0 400 202.99884659746252" xmlns="http://www.w3.org/2000/svg" xmlns:xlink="http://www.w3.org/1999/xlink" ><g id="svgg"><path id="path0" d="" stroke="none" fill="#000000" fill-rule="evenodd"></path><path id="path1" d="M278.376 60.425 C 278.208 60.487,277.888 60.618,277.665 60.717 C 277.442 60.816,276.345 61.232,275.228 61.641 C 274.112 62.051,273.152 62.448,273.096 62.524 C 273.041 62.599,272.525 62.860,271.951 63.103 C 270.665 63.648,267.014 65.529,266.599 65.861 C 266.431 65.995,265.883 66.320,265.381 66.584 C 264.878 66.848,264.284 67.222,264.061 67.416 C 263.838 67.609,263.244 68.021,262.741 68.331 C 259.335 70.435,256.235 74.683,257.317 75.765 C 257.479 75.927,257.674 76.256,257.750 76.497 C 257.931 77.066,259.642 78.493,260.640 78.906 C 261.070 79.084,261.878 79.441,262.437 79.698 C 262.995 79.956,264.365 80.365,265.482 80.608 C 266.599 80.851,267.695 81.126,267.919 81.221 C 268.658 81.533,272.887 82.072,281.320 82.931 C 281.655 82.966,282.386 83.052,282.944 83.124 C 283.503 83.196,285.604 83.394,287.614 83.565 C 292.006 83.938,295.789 84.407,296.345 84.647 C 296.569 84.743,297.437 84.987,298.274 85.187 C 302.441 86.186,303.761 88.228,301.540 90.239 C 300.903 90.814,301.024 90.982,301.980 90.848 C 305.536 90.347,307.929 89.905,307.986 89.739 C 308.024 89.631,308.259 89.543,308.510 89.543 C 309.111 89.543,313.077 88.431,314.619 87.830 C 315.289 87.569,316.431 87.149,317.157 86.898 C 317.883 86.646,318.523 86.377,318.579 86.299 C 318.635 86.221,319.345 85.905,320.158 85.597 C 320.970 85.289,321.747 84.931,321.884 84.803 C 322.021 84.674,322.864 84.216,323.757 83.785 C 324.650 83.355,325.774 82.738,326.254 82.415 C 326.734 82.092,327.152 81.827,327.182 81.827 C 327.686 81.827,330.353 78.542,330.354 77.919 C 330.355 77.723,330.447 77.563,330.558 77.563 C 330.670 77.563,330.761 77.139,330.761 76.619 C 330.761 74.231,328.624 71.921,324.670 70.038 C 323.944 69.693,323.090 69.270,322.773 69.098 C 321.820 68.584,318.454 67.439,315.431 66.600 C 313.868 66.165,312.086 65.670,311.472 65.498 C 310.858 65.327,309.350 64.997,308.122 64.766 C 306.893 64.535,305.706 64.261,305.482 64.157 C 305.259 64.054,303.112 63.639,300.711 63.237 C 298.310 62.834,296.162 62.471,295.939 62.430 C 294.184 62.110,289.485 61.488,286.802 61.221 C 285.015 61.043,283.279 60.813,282.944 60.710 C 282.202 60.481,278.798 60.268,278.376 60.425 M249.848 114.169 C 248.284 114.508,246.959 114.844,246.904 114.916 C 246.848 114.988,245.569 115.298,244.061 115.605 C 242.553 115.913,240.886 116.314,240.355 116.498 L 239.391 116.831 239.391 122.274 L 239.391 127.716 236.244 127.716 L 233.096 127.716 233.096 132.995 L 233.096 138.274 236.231 138.274 L 239.365 138.274 239.449 153.553 C 239.542 170.628,239.537 170.557,240.978 174.070 C 242.235 177.136,245.637 180.711,247.298 180.711 C 247.428 180.711,247.918 180.884,248.387 181.096 C 250.879 182.224,259.872 182.195,262.589 181.050 L 263.147 180.815 263.147 175.219 L 263.147 169.624 260.238 169.634 C 256.328 169.648,255.623 169.222,254.446 166.131 L 253.929 164.772 253.857 151.523 L 253.786 138.274 258.974 138.274 L 264.162 138.274 264.162 132.995 L 264.162 127.716 258.985 127.716 L 253.807 127.716 253.807 120.609 L 253.807 113.503 253.249 113.527 C 252.942 113.541,251.411 113.829,249.848 114.169 M64.078 127.115 C 62.626 127.343,59.892 128.078,59.601 128.318 C 59.485 128.414,58.788 128.805,58.052 129.189 C 51.773 132.459,48.004 142.405,50.688 148.623 C 51.569 150.664,52.278 152.081,52.420 152.081 C 52.507 152.081,52.722 152.359,52.898 152.698 C 53.514 153.890,58.477 158.376,59.179 158.376 C 59.256 158.376,59.955 158.787,60.732 159.289 C 61.509 159.792,62.205 160.203,62.278 160.203 C 62.500 160.203,64.852 162.090,65.165 162.519 C 65.326 162.739,65.629 163.091,65.839 163.301 C 66.772 164.234,67.077 166.614,66.461 168.153 C 65.115 171.518,59.233 171.796,53.257 168.777 C 51.540 167.910,51.637 167.858,51.170 169.883 C 50.968 170.757,50.705 171.746,50.585 172.081 C 50.465 172.416,50.130 173.787,49.841 175.127 C 49.553 176.467,49.219 177.815,49.100 178.123 C 48.761 179.001,50.118 179.904,52.839 180.613 C 53.539 180.796,54.275 181.032,54.474 181.138 C 56.329 182.129,66.351 182.120,68.178 181.126 C 68.371 181.021,69.126 180.747,69.856 180.516 C 72.625 179.641,76.596 176.646,77.554 174.709 C 77.717 174.380,78.006 173.929,78.197 173.706 C 80.153 171.417,80.883 163.666,79.497 159.897 C 78.867 158.184,78.324 156.889,78.178 156.751 C 78.118 156.695,77.739 156.143,77.335 155.524 C 76.181 153.757,73.373 151.109,71.292 149.825 C 71.000 149.645,69.895 148.968,68.837 148.321 C 67.778 147.674,66.789 147.021,66.639 146.871 C 66.490 146.722,66.294 146.599,66.205 146.599 C 65.580 146.599,63.778 144.332,63.557 143.267 C 62.565 138.490,67.685 136.452,73.797 139.190 C 75.902 140.134,76.132 140.130,76.139 139.154 C 76.141 138.912,76.215 138.684,76.305 138.646 C 76.394 138.609,76.773 137.117,77.147 135.330 C 77.521 133.543,77.890 131.990,77.966 131.878 C 78.132 131.636,78.645 129.327,78.546 129.266 C 75.794 127.567,68.293 126.452,64.078 127.115 M109.139 127.121 C 107.864 127.334,105.426 128.111,105.108 128.406 C 104.975 128.529,104.507 128.812,104.066 129.036 C 103.070 129.541,101.394 130.991,100.111 132.457 L 99.134 133.573 98.892 130.898 C 98.759 129.427,98.614 128.109,98.570 127.970 C 98.508 127.774,97.025 127.716,92.058 127.716 L 85.626 127.716 85.788 129.289 C 85.877 130.155,86.005 142.193,86.071 156.041 L 86.193 181.218 93.445 181.272 L 100.696 181.325 100.757 162.997 C 100.825 142.611,100.729 143.980,102.250 141.586 C 104.136 138.614,107.864 138.224,109.644 140.812 C 110.990 142.768,110.937 141.917,111.014 162.591 L 111.084 181.325 118.334 181.272 L 125.584 181.218 125.685 162.640 L 125.787 144.061 126.347 142.741 C 128.308 138.122,133.407 137.699,134.912 142.030 C 135.106 142.589,135.351 143.210,135.457 143.411 C 135.865 144.183,136.030 150.524,136.035 165.635 L 136.041 181.320 143.147 181.320 L 150.254 181.320 150.254 162.345 C 150.254 140.774,150.231 140.368,148.812 136.161 C 148.363 134.831,147.727 133.353,147.399 132.876 C 147.071 132.398,146.802 131.948,146.802 131.874 C 146.802 131.151,143.660 128.566,141.823 127.778 C 138.801 126.482,131.108 126.875,129.341 128.415 C 129.173 128.562,128.734 128.835,128.367 129.021 C 127.561 129.429,124.875 132.085,124.132 133.207 L 123.600 134.012 123.152 133.045 C 121.020 128.444,115.411 126.073,109.139 127.121 M172.589 127.041 C 169.540 127.351,165.683 128.138,164.703 128.650 C 164.405 128.805,164.064 128.932,163.944 128.933 C 163.639 128.934,161.140 129.960,161.015 130.135 C 160.959 130.213,160.617 130.397,160.254 130.544 C 159.891 130.691,159.594 130.889,159.594 130.985 C 159.594 131.408,160.677 135.746,160.805 135.838 C 160.884 135.893,161.207 137.058,161.524 138.426 C 162.157 141.164,162.119 141.117,163.134 140.428 C 163.527 140.161,164.559 139.689,165.427 139.379 C 166.295 139.069,167.102 138.742,167.221 138.652 C 168.349 137.805,175.046 137.651,176.665 138.435 C 179.018 139.574,180.155 141.363,180.434 144.362 L 180.558 145.701 177.639 145.952 C 174.792 146.196,172.289 146.617,171.472 146.989 C 171.249 147.090,170.301 147.418,169.365 147.716 C 159.373 150.906,153.940 161.193,156.865 171.386 C 159.985 182.257,172.742 185.852,180.497 178.045 L 182.089 176.442 182.332 178.221 C 182.465 179.199,182.640 180.274,182.721 180.609 L 182.868 181.218 189.430 181.272 L 195.992 181.325 195.848 180.257 C 195.768 179.669,195.612 178.457,195.501 177.563 C 195.389 176.670,195.258 169.041,195.208 160.609 C 195.159 152.178,195.037 144.959,194.937 144.569 C 194.837 144.178,194.652 143.036,194.525 142.030 C 194.152 139.083,193.847 138.075,192.372 134.924 C 189.637 129.080,182.092 126.073,172.589 127.041 M225.026 127.217 C 222.765 127.826,219.243 130.527,218.771 132.014 C 218.706 132.218,218.564 132.386,218.455 132.386 C 218.232 132.386,217.060 134.758,217.050 135.228 C 217.044 135.499,217.025 135.499,216.877 135.228 C 216.785 135.061,216.598 133.462,216.462 131.675 C 216.326 129.888,216.169 128.266,216.114 128.071 C 216.021 127.742,215.540 127.716,209.715 127.716 L 203.417 127.716 203.534 129.086 C 203.598 129.840,203.707 141.901,203.776 155.888 L 203.900 181.320 211.186 181.320 L 218.472 181.320 218.530 166.041 C 218.582 152.504,218.628 150.603,218.932 149.374 C 220.248 144.056,223.727 141.210,228.731 141.360 L 230.761 141.421 230.815 134.288 L 230.868 127.155 230.409 127.032 C 229.569 126.807,226.107 126.926,225.026 127.217 M285.381 127.111 C 276.501 128.460,269.184 137.020,267.910 147.548 C 267.832 148.199,267.699 148.822,267.616 148.934 C 267.194 149.504,267.029 158.593,267.402 160.812 C 268.088 164.898,268.813 167.933,269.344 168.934 C 269.492 169.213,269.899 170.079,270.248 170.857 C 270.598 171.636,270.952 172.321,271.035 172.380 C 271.119 172.439,271.450 172.944,271.772 173.503 C 272.723 175.151,276.975 179.086,277.806 179.086 C 277.886 179.086,278.255 179.292,278.626 179.543 C 278.997 179.794,279.983 180.212,280.818 180.471 C 281.652 180.730,282.498 181.030,282.698 181.138 C 284.538 182.127,296.483 182.117,298.782 181.124 C 299.005 181.028,300.302 180.698,301.664 180.392 C 303.025 180.086,304.248 179.768,304.380 179.686 C 304.560 179.575,304.459 178.699,303.979 176.216 C 303.627 174.388,303.181 172.055,302.989 171.030 C 302.593 168.918,302.512 168.777,301.878 169.094 C 298.840 170.616,290.556 170.981,287.173 169.742 C 283.950 168.562,281.218 164.424,281.218 160.723 L 281.218 159.797 293.807 159.797 C 300.731 159.797,306.402 159.728,306.410 159.645 C 306.418 159.561,306.519 158.761,306.634 157.868 C 307.262 152.995,306.368 141.694,305.184 139.536 C 305.079 139.345,304.668 138.365,304.271 137.360 C 303.873 136.355,303.458 135.503,303.348 135.465 C 303.237 135.428,303.147 135.309,303.147 135.202 C 303.147 134.207,299.207 129.983,297.396 129.036 C 296.756 128.701,296.012 128.310,295.743 128.167 C 293.947 127.217,288.403 126.652,285.381 127.111 M308.426 127.933 C 308.426 128.236,309.606 131.170,309.930 131.675 C 310.074 131.898,310.392 132.629,310.637 133.299 C 310.882 133.970,311.348 135.066,311.673 135.736 C 311.998 136.406,312.508 137.594,312.806 138.376 C 313.105 139.157,313.412 139.843,313.489 139.898 C 313.565 139.954,313.936 140.799,314.313 141.777 C 314.690 142.754,315.073 143.553,315.164 143.553 C 315.255 143.553,315.330 143.668,315.331 143.807 C 315.332 144.127,316.498 147.004,316.750 147.308 C 316.852 147.432,317.256 148.370,317.647 149.394 C 318.037 150.417,318.489 151.463,318.650 151.719 C 318.811 151.974,319.149 152.757,319.400 153.458 L 319.856 154.734 319.286 156.199 C 318.972 157.005,318.647 157.711,318.563 157.768 C 318.479 157.824,318.123 158.601,317.772 159.493 C 317.421 160.386,316.908 161.553,316.633 162.087 C 316.357 162.621,315.938 163.580,315.701 164.219 C 315.464 164.858,315.209 165.426,315.136 165.482 C 315.062 165.538,314.692 166.360,314.313 167.310 C 313.934 168.259,313.520 169.173,313.393 169.340 C 313.266 169.508,312.857 170.444,312.483 171.421 C 312.110 172.398,311.729 173.198,311.638 173.198 C 311.547 173.198,311.472 173.303,311.472 173.431 C 311.472 173.652,309.776 177.579,308.700 179.845 C 307.967 181.391,307.633 181.320,315.615 181.320 L 322.779 181.320 323.201 179.949 C 323.432 179.195,323.775 178.168,323.962 177.665 C 324.149 177.162,324.525 175.975,324.798 175.025 C 325.071 174.076,325.420 173.025,325.573 172.690 C 325.726 172.355,326.100 171.122,326.404 169.949 C 326.709 168.777,327.076 167.583,327.221 167.297 C 327.366 167.011,327.642 166.120,327.836 165.317 C 328.164 163.958,328.528 163.383,328.528 164.223 C 328.528 164.424,328.609 164.676,328.708 164.782 C 328.807 164.888,329.177 166.021,329.530 167.301 C 329.883 168.580,330.250 169.722,330.344 169.839 C 330.439 169.955,330.845 171.091,331.246 172.363 C 331.648 173.634,332.057 174.777,332.156 174.901 C 332.256 175.025,332.494 175.674,332.685 176.342 C 332.877 177.011,333.361 178.404,333.761 179.439 L 334.487 181.320 342.370 181.320 C 348.241 181.320,350.254 181.259,350.254 181.083 C 350.254 180.953,349.764 179.788,349.165 178.494 C 348.566 177.201,347.954 175.799,347.805 175.381 C 347.655 174.962,347.470 174.619,347.392 174.619 C 347.315 174.619,347.192 174.378,347.118 174.083 C 347.044 173.788,346.592 172.715,346.114 171.697 C 345.636 170.680,345.030 169.322,344.768 168.680 C 344.505 168.038,344.216 167.513,344.125 167.513 C 344.034 167.513,343.959 167.387,343.959 167.233 C 343.959 166.913,343.154 165.001,342.451 163.655 C 342.189 163.152,341.907 162.513,341.824 162.234 C 341.741 161.954,341.357 161.086,340.971 160.305 C 340.584 159.523,339.994 158.198,339.659 157.361 C 339.325 156.525,338.984 155.794,338.902 155.737 C 338.821 155.681,338.609 155.267,338.433 154.819 L 338.112 154.003 339.065 151.976 C 339.589 150.861,340.146 149.629,340.302 149.239 C 340.458 148.848,340.641 148.482,340.708 148.426 C 340.775 148.371,341.130 147.594,341.498 146.701 C 341.866 145.807,342.295 144.875,342.452 144.629 C 342.609 144.384,343.020 143.470,343.366 142.600 C 343.712 141.730,344.064 140.971,344.149 140.915 C 344.235 140.858,344.557 140.177,344.865 139.401 C 345.174 138.625,345.642 137.574,345.906 137.066 C 346.505 135.915,347.817 133.085,348.501 131.472 C 348.786 130.802,349.250 129.804,349.534 129.255 C 350.392 127.597,350.920 127.716,342.682 127.716 L 335.314 127.716 334.662 129.898 C 334.303 131.099,334.010 132.188,334.010 132.318 C 334.010 132.448,333.933 132.585,333.838 132.623 C 333.743 132.660,333.363 133.695,332.993 134.924 C 332.624 136.152,332.245 137.294,332.151 137.462 C 332.058 137.629,331.656 139.091,331.258 140.711 C 330.860 142.330,330.403 143.943,330.242 144.295 C 330.081 144.647,329.939 145.149,329.927 145.411 C 329.915 145.674,329.689 145.020,329.425 143.959 C 329.160 142.898,328.854 141.848,328.744 141.624 C 328.634 141.401,328.270 140.305,327.936 139.188 C 327.133 136.510,325.923 132.819,325.640 132.183 C 325.515 131.904,325.128 130.807,324.778 129.746 L 324.142 127.817 316.284 127.764 C 310.694 127.726,308.426 127.775,308.426 127.933 M289.167 137.873 C 291.371 138.485,293.155 142.461,293.515 147.563 L 293.647 149.442 287.433 149.442 L 281.218 149.442 281.218 148.438 C 281.218 147.887,281.310 147.379,281.421 147.310 C 281.533 147.241,281.624 146.881,281.624 146.512 C 281.624 145.412,282.586 141.955,283.174 140.942 C 284.815 138.110,286.646 137.173,289.167 137.873 M180.710 160.761 C 180.708 167.532,180.464 168.511,178.423 169.947 C 177.950 170.279,177.461 170.637,177.336 170.741 C 175.294 172.447,171.571 170.662,170.550 167.488 C 168.941 162.484,171.249 157.682,175.913 156.328 C 176.709 156.097,177.543 155.826,177.766 155.726 C 178.155 155.553,178.946 155.433,180.152 155.362 L 180.711 155.330 180.710 160.761 " stroke="none" fill="#58595b" fill-rule="evenodd"></path><path id="path2" d="M349.893 21.613 C 349.202 22.491,344.483 26.005,343.640 26.269 C 343.408 26.341,343.043 26.562,342.828 26.759 C 342.613 26.955,341.751 27.421,340.914 27.793 C 340.076 28.165,339.345 28.536,339.289 28.617 C 339.234 28.699,338.368 29.061,337.366 29.421 C 336.364 29.781,335.451 30.152,335.336 30.244 C 335.221 30.337,333.985 30.744,332.589 31.147 C 331.193 31.551,329.905 31.964,329.727 32.065 C 329.550 32.165,328.088 32.536,326.479 32.889 C 324.870 33.241,323.406 33.608,323.227 33.703 C 323.048 33.798,321.174 34.164,319.065 34.515 C 316.955 34.867,315.046 35.236,314.822 35.336 C 314.599 35.436,312.589 35.752,310.355 36.040 C 308.122 36.327,305.335 36.698,304.162 36.864 C 302.990 37.030,299.152 37.523,295.635 37.960 C 292.117 38.397,287.183 39.036,284.670 39.381 C 282.157 39.726,279.668 40.064,279.137 40.134 C 278.607 40.203,278.173 40.338,278.173 40.434 C 278.173 40.530,277.967 40.611,277.716 40.612 C 276.824 40.619,270.929 41.954,270.558 42.233 C 270.447 42.318,269.487 42.636,268.426 42.940 C 267.365 43.245,266.315 43.608,266.091 43.746 C 265.868 43.885,265.183 44.163,264.569 44.365 C 262.721 44.971,257.056 47.808,254.924 49.194 C 242.289 57.410,237.600 66.991,242.744 74.079 C 244.240 76.140,249.118 79.391,250.715 79.391 C 250.852 79.391,250.964 79.468,250.964 79.563 C 250.964 79.741,253.090 80.392,255.025 80.806 C 255.640 80.937,256.325 81.128,256.548 81.231 C 257.029 81.452,260.748 82.061,260.870 81.939 C 261.061 81.747,260.664 81.444,260.048 81.310 C 259.687 81.231,259.345 81.103,259.289 81.024 C 259.234 80.945,258.416 80.626,257.472 80.316 C 252.852 78.795,250.776 76.788,251.659 74.695 C 252.622 72.413,259.247 65.565,261.269 64.760 C 261.520 64.660,261.726 64.500,261.726 64.405 C 261.726 64.309,261.977 64.104,262.284 63.949 C 262.591 63.794,263.309 63.377,263.878 63.023 C 265.130 62.244,269.153 60.293,270.558 59.783 C 271.117 59.581,271.756 59.305,271.980 59.172 C 272.203 59.038,273.391 58.635,274.619 58.276 C 275.848 57.917,276.944 57.553,277.056 57.467 C 277.168 57.381,278.492 57.020,280.000 56.666 C 281.508 56.312,282.924 55.937,283.147 55.834 C 283.371 55.731,285.015 55.366,286.802 55.022 C 288.589 54.678,290.234 54.313,290.457 54.211 C 290.680 54.109,292.690 53.701,294.924 53.304 C 297.157 52.907,299.168 52.497,299.391 52.394 C 299.614 52.290,301.252 51.924,303.030 51.581 C 304.808 51.238,306.361 50.879,306.481 50.784 C 306.602 50.689,307.066 50.547,307.513 50.469 C 308.844 50.235,312.355 49.356,312.792 49.147 C 313.015 49.040,314.200 48.669,315.425 48.322 C 316.651 47.976,317.930 47.564,318.268 47.407 C 318.606 47.249,319.614 46.854,320.508 46.529 C 322.754 45.710,326.172 44.256,326.294 44.068 C 326.350 43.982,327.081 43.579,327.919 43.172 C 329.988 42.166,334.000 39.761,334.661 39.129 C 334.870 38.930,335.293 38.610,335.601 38.419 C 337.924 36.977,343.069 32.044,345.929 28.517 C 346.947 27.261,350.003 22.835,350.433 21.993 C 350.915 21.051,350.541 20.789,349.893 21.613 M334.112 77.699 C 334.112 78.728,334.022 79.463,333.886 79.551 C 333.762 79.630,333.499 80.015,333.301 80.406 C 332.849 81.299,331.303 82.995,330.361 83.631 C 329.967 83.896,329.553 84.219,329.442 84.346 C 328.640 85.265,320.727 89.365,317.464 90.552 C 316.796 90.796,316.156 91.072,316.043 91.165 C 315.930 91.259,315.061 91.605,314.112 91.934 C 313.162 92.263,311.975 92.718,311.472 92.946 C 310.970 93.173,309.827 93.610,308.934 93.915 C 308.041 94.221,307.264 94.529,307.208 94.601 C 307.152 94.673,306.421 94.949,305.584 95.216 C 304.746 95.482,303.604 95.905,303.046 96.154 C 302.487 96.404,301.162 96.904,300.102 97.266 C 299.041 97.628,298.081 97.993,297.970 98.078 C 297.858 98.163,296.949 98.519,295.950 98.871 C 294.950 99.222,294.037 99.589,293.919 99.687 C 293.802 99.784,293.112 100.069,292.386 100.320 C 291.660 100.570,290.472 101.070,289.746 101.430 C 289.020 101.790,288.198 102.151,287.919 102.233 C 287.640 102.314,287.000 102.596,286.497 102.859 C 285.995 103.121,284.898 103.659,284.061 104.053 C 282.269 104.897,279.961 106.144,279.805 106.352 C 279.745 106.432,279.166 106.772,278.518 107.107 C 277.871 107.442,277.186 107.853,276.995 108.020 C 276.805 108.188,276.137 108.660,275.510 109.070 C 271.813 111.487,268.331 115.996,267.908 118.915 C 267.830 119.456,267.678 120.009,267.570 120.145 C 266.991 120.872,268.358 126.834,269.358 127.939 C 269.858 128.491,269.998 128.424,270.149 127.563 C 270.689 124.492,275.341 120.851,281.117 118.979 C 281.898 118.726,282.584 118.460,282.640 118.388 C 282.857 118.110,291.101 115.757,296.954 114.303 C 298.741 113.859,300.386 113.409,300.609 113.304 C 300.832 113.199,302.066 112.871,303.350 112.574 C 304.635 112.278,305.959 111.918,306.294 111.773 C 306.629 111.629,308.046 111.215,309.442 110.854 C 310.838 110.493,312.071 110.131,312.183 110.050 C 312.294 109.970,313.482 109.562,314.822 109.145 C 316.162 108.728,317.350 108.315,317.462 108.229 C 317.574 108.142,318.259 107.868,318.985 107.618 C 320.265 107.179,323.233 105.872,324.264 105.295 C 324.543 105.138,325.365 104.695,326.091 104.309 C 329.642 102.424,333.844 98.836,335.055 96.655 C 335.274 96.261,335.669 95.581,335.933 95.144 C 336.197 94.706,336.564 93.838,336.750 93.215 C 336.935 92.591,337.194 91.861,337.325 91.593 C 337.645 90.937,337.654 84.237,337.336 83.838 C 337.211 83.681,337.043 83.190,336.963 82.746 C 336.774 81.697,335.832 78.710,335.649 78.579 C 335.571 78.523,335.300 77.959,335.046 77.325 C 334.352 75.591,334.112 75.687,334.112 77.699 " stroke="none" fill="#00b04c" fill-rule="evenodd"></path><path id="path3" d="" stroke="none" fill="#00ff00" fill-rule="evenodd"></path><path id="path4" d="" stroke="none" fill="#ffff00" fill-rule="evenodd"></path></g></svg>